<?xml version="1.0" ?><!DOCTYPE svg  PUBLIC '-//W3C//DTD SVG 1.1//EN'  'http://www.w3.org/Graphics/SVG/1.1/DTD/svg11.dtd'>
<svg version="1.1" viewBox="0 0 48 48" xml:space="preserve" xmlns="http://www.w3.org/2000/svg" xmlns:xlink="http://www.w3.org/1999/xlink">
<g id="forklift">
 <path d="M38.6,39.7V8.3h-2.1v28.2h-3.1v-3.4c0-1.1-0.8-2-1.9-2.1c-0.5,0-0.9-0.1-1.3-0.2L25,6.4c-0.1-1.8-1.5-3.2-3.3-3.2H10.6   c-1.8,0-3.3,1.5-3.3,3.3v16.9c-1.9-0.5-3.7-0.6-5.6-0.2c-1,0.2-1.7,1.1-1.7,2.1v14.3c0,1.2,0.9,2.1,2.1,2.1h0.6   c-0.1-0.3-0.1-0.7-0.1-1c0-2.9,2.3-5.2,5.2-5.2c2.9,0,5.2,2.3,5.2,5.2c0,0.4,0,0.7-0.1,1h8c-0.1-0.3-0.1-0.7-0.1-1   c0-2.9,2.3-5.2,5.2-5.2c2.9,0,5.2,2.3,5.2,5.2c0,0.4,0,0.7-0.1,1h0.1c1.2,0,2.1-0.9,2.1-2.1v-1h3.1v3.1C39.8,40.9,48,41,48,39.7   H38.6z M16.7,18.7l3.2,1.4c0,0.2,0,0.3,0.1,0.5c0.1,0.2,0.3,0.3,0.5,0.3c0.1,0,0.3,0,0.4-0.2l0.7-0.6c0.1-0.1,0.2-0.2,0.4-0.3   l1.8,3.1h-7V18.7z M10.6,5.2h11.1c0.7,0,1.3,0.6,1.3,1.3L26.4,23h-1.5L22.6,19l1.2-1.1c0.3-0.2,0.3-0.7,0.1-1   c-0.2-0.3-0.6-0.3-0.8-0.1l-1.1,1c-0.2-0.2-0.4-0.4-0.7-0.5l-5-2.2c-0.5-0.9-1.5-1.6-2.7-1.6c-1.7,0-3.1,1.4-3.1,3.1V23h-1V6.5   C9.4,5.8,10,5.2,10.6,5.2z"/>
 <path d="M40.7,38.6H47c0.6,0,1-0.5,1-1V24c0-0.6-0.5-1-1-1h-6.3c-0.6,0-1,0.5-1,1v13.6C39.7,38.1,40.1,38.6,40.7,38.6z"/>
 <path d="M7.8,36.5c-2.3,0-4.2,1.9-4.2,4.2s1.9,4.2,4.2,4.2c2.3,0,4.2-1.9,4.2-4.2S10.1,36.5,7.8,36.5z M7.8,41.7c-0.6,0-1-0.5-1-1   c0-0.6,0.5-1,1-1c0.6,0,1,0.5,1,1C8.9,41.3,8.4,41.7,7.8,41.7z"/><path d="M26.1,36.5c-2.3,0-4.2,1.9-4.2,4.2s1.9,4.2,4.2,4.2c2.3,0,4.2-1.9,4.2-4.2S28.4,36.5,26.1,36.5z M26.1,41.7   c-0.6,0-1-0.5-1-1c0-0.6,0.5-1,1-1s1,0.5,1,1C27.1,41.3,26.7,41.7,26.1,41.7z"/>
 <circle cx="13.6" cy="9.4" r="3.1"/>
</g>
</svg>